<?xml version="1.0" encoding="UTF-8" standalone="no"?>
<!-- Created with Inkscape (http://www.inkscape.org/) -->
<svg
   xmlns:dc="http://purl.org/dc/elements/1.1/"
   xmlns:cc="http://web.resource.org/cc/"
   xmlns:rdf="http://www.w3.org/1999/02/22-rdf-syntax-ns#"
   xmlns:svg="http://www.w3.org/2000/svg"
   xmlns="http://www.w3.org/2000/svg"
   xmlns:xlink="http://www.w3.org/1999/xlink"
   xmlns:sodipodi="http://sodipodi.sourceforge.net/DTD/sodipodi-0.dtd"
   xmlns:inkscape="http://www.inkscape.org/namespaces/inkscape"
   id="svg5573"
   sodipodi:version="0.32"
   inkscape:version="0.44+devel"
   width="200"
   height="200"
   version="1.0"
   sodipodi:docbase="/home/aurium"
   sodipodi:docname="ant.svg"
   inkscape:output_extension="org.inkscape.output.svg.inkscape"
   sodipodi:modified="true">
  <metadata
     id="metadata5578">
    <rdf:RDF>
      <cc:Work
         rdf:about="">
        <dc:format>image/svg+xml</dc:format>
        <dc:type
           rdf:resource="http://purl.org/dc/dcmitype/StillImage" />
        <cc:license
           rdf:resource="http://web.resource.org/cc/PublicDomain" />
        <dc:title>Ant</dc:title>
        <dc:date>2006-11-10</dc:date>
        <dc:creator>
          <cc:Agent>
            <dc:title>Aurelio A. Heckert</dc:title>
          </cc:Agent>
        </dc:creator>
        <dc:rights>
          <cc:Agent>
            <dc:title>Aurelio A. Heckert</dc:title>
          </cc:Agent>
        </dc:rights>
        <dc:publisher>
          <cc:Agent>
            <dc:title>Aurelio A. Heckert</dc:title>
          </cc:Agent>
        </dc:publisher>
        <dc:subject>
          <rdf:Bag>
            <rdf:li>ant formiga</rdf:li>
          </rdf:Bag>
        </dc:subject>
      </cc:Work>
      <cc:License
         rdf:about="http://web.resource.org/cc/PublicDomain">
        <cc:permits
           rdf:resource="http://web.resource.org/cc/Reproduction" />
        <cc:permits
           rdf:resource="http://web.resource.org/cc/Distribution" />
        <cc:permits
           rdf:resource="http://web.resource.org/cc/DerivativeWorks" />
      </cc:License>
    </rdf:RDF>
  </metadata>
  <defs
     id="defs5576">
    <radialGradient
       inkscape:collect="always"
       xlink:href="#linearGradient5070"
       id="radialGradient7004"
       gradientUnits="userSpaceOnUse"
       gradientTransform="matrix(1.5733259,-1.0835666e-2,6.671977e-3,0.9688161,-229.1636,23.95129)"
       cx="392.457"
       cy="623.16797"
       fx="392.457"
       fy="623.16797"
       r="9.25346" />
    <linearGradient
       id="linearGradient5094">
      <stop
         id="stop5096"
         offset="0"
         style="stop-color:#ff7251;stop-opacity:1;" />
      <stop
         style="stop-color:#70130a;stop-opacity:1;"
         offset="0.40000001"
         id="stop5098" />
      <stop
         id="stop5100"
         offset="1"
         style="stop-color:#420b06;stop-opacity:0;" />
    </linearGradient>
    <radialGradient
       inkscape:collect="always"
       xlink:href="#linearGradient5094"
       id="radialGradient7002"
       gradientUnits="userSpaceOnUse"
       gradientTransform="matrix(0.3795967,6.7968704e-2,-3.4949066e-2,0.1951862,254.5291,473.5132)"
       cx="354.82568"
       cy="622.62866"
       fx="354.82568"
       fy="622.62866"
       r="21.073575" />
    <linearGradient
       id="linearGradient5987">
      <stop
         style="stop-color:#cb9090;stop-opacity:1;"
         offset="0"
         id="stop5989" />
      <stop
         id="stop5995"
         offset="0.2"
         style="stop-color:#4c2a2a;stop-opacity:1;" />
      <stop
         style="stop-color:#140000;stop-opacity:1;"
         offset="1"
         id="stop5991" />
    </linearGradient>
    <radialGradient
       inkscape:collect="always"
       xlink:href="#linearGradient5987"
       id="radialGradient7000"
       gradientUnits="userSpaceOnUse"
       gradientTransform="matrix(1.2237925,2.4575164e-2,-1.7170035e-2,0.8550548,-64.297756,82.168006)"
       cx="342.10699"
       cy="611.88818"
       fx="342.10699"
       fy="611.88818"
       r="11.295608" />
    <linearGradient
       id="linearGradient5070">
      <stop
         style="stop-color:#ff7251;stop-opacity:1;"
         offset="0"
         id="stop5072" />
      <stop
         id="stop5080"
         offset="0.40000001"
         style="stop-color:#70130a;stop-opacity:1;" />
      <stop
         style="stop-color:#420b06;stop-opacity:1;"
         offset="1"
         id="stop5074" />
    </linearGradient>
    <radialGradient
       inkscape:collect="always"
       xlink:href="#linearGradient5070"
       id="radialGradient6998"
       gradientUnits="userSpaceOnUse"
       gradientTransform="matrix(0.4494394,9.9863878e-2,-5.6914908e-2,0.2561467,243.4237,424.24022)"
       cx="380.23563"
       cy="618.78259"
       fx="380.23563"
       fy="618.78259"
       r="21.073575" />
    <filter
       inkscape:collect="always"
       id="filter6796">
      <feGaussianBlur
         inkscape:collect="always"
         stdDeviation="2.001753"
         id="feGaussianBlur6798" />
    </filter>
  </defs>
  <sodipodi:namedview
     inkscape:window-height="596"
     inkscape:window-width="829"
     inkscape:pageshadow="2"
     inkscape:pageopacity="0.0"
     guidetolerance="10.0"
     gridtolerance="10.0"
     objecttolerance="10.0"
     borderopacity="1.0"
     bordercolor="#666666"
     pagecolor="#ffffff"
     id="base"
     width="200px"
     height="200px"
     inkscape:zoom="1.89"
     inkscape:cx="100"
     inkscape:cy="100"
     inkscape:window-x="5"
     inkscape:window-y="49"
     inkscape:current-layer="svg5573" />
  <g
     transform="matrix(-1.7853528,0,0,1.7853528,745.9216,-1102.774)"
     id="use6904"
     inkscape:tile-w="106.44628"
     inkscape:tile-h="74.139705"
     inkscape:tile-cx="877.30107"
     inkscape:tile-cy="345.07525">
    <g
       transform="translate(-102,2)"
       style="fill:#000000;filter:url(#filter6796)"
       id="g6912">
      <g
         style="fill:#000000;fill-opacity:1"
         id="g6914"
         transform="translate(82.43278,49.878357)">
        <path
           sodipodi:nodetypes="csccccsscccccc"
           id="path6916"
           d="M 340.1875,586.84375 C 339.98288,586.85111 339.80343,586.98247 339.73457,587.17529 C 339.6657,587.36811 339.72134,587.58343 339.875,587.71875 C 343.27083,591.11458 346.34285,596.12952 350.0625,597.90625 C 351.35531,600.71309 351.9434,606.81521 356.3125,608.8125 C 358.42437,613.39945 362.47917,616.20538 365.5625,618.6875 C 365.67948,618.83873 365.87245,618.91002 366.05965,618.87116 C 366.24685,618.83231 366.39551,618.69011 366.44264,618.50482 C 366.48978,618.31953 366.42713,618.12358 366.28125,618 C 366.12271,615.8417 362.07834,611.09285 357.0625,608.125 C 355.92118,604.99434 354.35122,598.89222 350.78125,597.21875 C 350.78158,597.20834 350.78158,597.19791 350.78125,597.1875 C 349.00452,593.46785 343.98958,590.39583 340.59375,587 C 340.48929,586.88862 340.33967,586.83107 340.1875,586.84375 z "
           style="fill:#000000;fill-opacity:1;fill-rule:evenodd;stroke:none;stroke-width:1px;stroke-linecap:round;stroke-linejoin:round;stroke-opacity:1" />
        <path
           sodipodi:nodetypes="ccccccsscccccsc"
           id="path6918"
           d="M 385,584.90625 C 384.87102,584.93501 384.75867,585.01366 384.6875,585.125 C 382.57292,588.04167 379.32496,590.79642 378.34375,593.875 C 378.29042,593.9483 378.25801,594.03471 378.25,594.125 C 377.17437,597.11844 375.07021,602.75951 375.9375,606.5625 C 372.83153,606.23826 368.59219,611.41896 368.5625,618.21875 C 368.45027,618.36953 368.43208,618.57051 368.51541,618.739 C 368.59874,618.90748 368.76951,619.015 368.95746,619.01732 C 369.14541,619.01964 369.31878,618.91637 369.40625,618.75 C 372.05774,614.00295 373.89969,610.55118 376.875,606.9375 C 376.91732,606.86106 376.93887,606.77486 376.9375,606.6875 C 378.82268,603.06726 380.11729,597.44701 379.25,594.3125 C 381.32292,592.58129 383.39583,588.58333 385.46875,585.71875 C 385.6025,585.55779 385.62187,585.33056 385.51729,585.14928 C 385.4127,584.96801 385.2063,584.87103 385,584.90625 z "
           style="fill:#000000;fill-opacity:1;fill-rule:evenodd;stroke:none;stroke-width:1px;stroke-linecap:round;stroke-linejoin:round;stroke-opacity:1" />
        <path
           sodipodi:nodetypes="ccccccssccccccsc"
           id="path6920"
           d="M 412.125,605 C 409,606.03125 403.28444,605.4434 402.75,608.09375 C 402.73958,608.09375 402.72917,608.09375 402.71875,608.09375 C 399.98188,607.00976 392.65444,607.92576 389.59375,613.15625 C 389.58334,613.15592 389.57291,613.15592 389.5625,613.15625 C 385.7792,610.19003 376.65288,612.40493 374.8125,618.34375 C 374.6352,618.39772 374.50229,618.54532 374.46714,618.72729 C 374.43199,618.90926 374.50037,619.09575 374.64482,619.21187 C 374.78926,619.32798 374.98609,619.35469 375.15625,619.28125 C 379.40444,615.13385 383.32882,614.38656 389.84375,614.125 C 389.85417,614.125 389.86458,614.125 389.875,614.125 C 392.94611,612.78035 397.85531,609.27378 403.03125,609.0625 C 403.03158,609.05209 403.03158,609.04166 403.03125,609.03125 C 405.68094,608.65806 409.30208,606.98958 412.4375,605.96875 C 412.70501,605.88246 412.85192,605.59564 412.76562,605.32812 C 412.67933,605.06061 412.39251,604.91371 412.125,605 z "
           style="fill:#000000;fill-opacity:1;fill-rule:evenodd;stroke:none;stroke-width:1px;stroke-linecap:round;stroke-linejoin:round;stroke-opacity:1" />
      </g>
      <g
         style="fill:#000000;fill-opacity:1"
         id="g6922"
         transform="matrix(0.9521764,0.305549,0.305549,-0.9521764,-89.76601,1150.0406)">
        <path
           style="fill:#000000;fill-opacity:1;fill-rule:evenodd;stroke:none;stroke-width:1px;stroke-linecap:round;stroke-linejoin:round;stroke-opacity:1"
           d="M 339.48076,591.3592 C 339.27614,591.36656 339.09669,591.49792 339.02783,591.69074 C 338.95896,591.88356 339.0146,592.09888 339.16826,592.2342 C 342.56409,595.63003 345.63611,600.64497 349.35576,602.4217 C 350.64857,605.22854 351.9434,606.81521 356.3125,608.8125 C 358.42437,613.39945 362.47917,616.20538 365.5625,618.6875 C 365.67948,618.83873 365.87245,618.91002 366.05965,618.87116 C 366.24685,618.83231 366.39551,618.69011 366.44264,618.50482 C 366.48978,618.31953 366.42713,618.12358 366.28125,618 C 366.12271,615.8417 362.07834,611.09285 357.0625,608.125 C 355.92118,604.99434 353.64448,603.40767 350.07451,601.7342 C 350.07484,601.72379 350.07484,601.71336 350.07451,601.70295 C 348.29778,597.9833 343.28284,594.91128 339.88701,591.51545 C 339.78255,591.40407 339.63293,591.34652 339.48076,591.3592 z "
           id="path6924"
           sodipodi:nodetypes="csccccsscccccc" />
        <path
           style="fill:#000000;fill-opacity:1;fill-rule:evenodd;stroke:none;stroke-width:1px;stroke-linecap:round;stroke-linejoin:round;stroke-opacity:1"
           d="M 384.29326,589.4217 C 384.16428,589.45046 384.05193,589.52911 383.98076,589.64045 C 381.86618,592.55712 378.61822,595.31187 377.63701,598.39045 C 377.58368,598.46375 377.55127,598.55016 377.54326,598.64045 C 376.46763,601.63389 375.07021,602.75951 375.9375,606.5625 C 372.83153,606.23826 368.59219,611.41896 368.5625,618.21875 C 368.45027,618.36953 368.43208,618.57051 368.51541,618.739 C 368.59874,618.90748 368.76951,619.015 368.95746,619.01732 C 369.14541,619.01964 369.31878,618.91637 369.40625,618.75 C 372.05774,614.00295 373.89969,610.55118 376.875,606.9375 C 376.91732,606.86106 376.93887,606.77486 376.9375,606.6875 C 378.82268,603.06726 379.41055,601.96246 378.54326,598.82795 C 380.61618,597.09674 382.68909,593.09878 384.76201,590.2342 C 384.89576,590.07324 384.91513,589.84601 384.81055,589.66473 C 384.70596,589.48346 384.49956,589.38648 384.29326,589.4217 z "
           id="path6926"
           sodipodi:nodetypes="ccccccsscccccsc" />
        <path
           style="fill:#000000;fill-opacity:1;fill-rule:evenodd;stroke:none;stroke-width:1px;stroke-linecap:round;stroke-linejoin:round;stroke-opacity:1"
           d="M 411.41826,609.51545 C 408.29326,610.5467 402.5777,609.95885 402.04326,612.6092 C 402.03284,612.6092 402.02243,612.6092 402.01201,612.6092 C 399.27514,611.52521 392.65444,607.92576 389.59375,613.15625 C 389.58334,613.15592 389.57291,613.15592 389.5625,613.15625 C 385.7792,610.19003 376.65288,612.40493 374.8125,618.34375 C 374.6352,618.39772 374.50229,618.54532 374.46714,618.72729 C 374.43199,618.90926 374.50037,619.09575 374.64482,619.21187 C 374.78926,619.32798 374.98609,619.35469 375.15625,619.28125 C 379.40444,615.13385 383.32882,614.38656 389.84375,614.125 C 389.85417,614.125 389.86458,614.125 389.875,614.125 C 392.94611,612.78035 397.14857,613.78923 402.32451,613.57795 C 402.32484,613.56754 402.32484,613.55711 402.32451,613.5467 C 404.9742,613.17351 408.59534,611.50503 411.73076,610.4842 C 411.99827,610.39791 412.14518,610.11109 412.05888,609.84357 C 411.97259,609.57606 411.68577,609.42916 411.41826,609.51545 z "
           id="path6928"
           sodipodi:nodetypes="ccccccssccccccsc" />
      </g>
      <g
         style="fill:#000000;fill-opacity:1"
         id="g6930"
         transform="translate(82.43278,49.878357)">
        <path
           sodipodi:nodetypes="ccccccccccc"
           id="path6932"
           d="M 347.44845,615.11919 C 354.71646,615.61113 357.38964,617.12414 362.36024,618.12661 C 366.24992,615.97515 371.16067,617.52506 373.64638,619.33025 C 376.87348,616.17785 385.33357,619.40715 385.24218,622.89173 L 388.53307,623.61945 L 388.1789,626.80706 L 384.62657,626.33168 C 381.90961,629.50432 374.08729,628.84795 372.64666,624.36255 C 369.11613,626.0809 363.67108,624.22549 361.67215,621.85955 C 356.57674,621.26559 353.90638,621.56507 346.38592,620.07768 L 347.44845,615.11919 z "
           style="fill:#000000;fill-opacity:1;fill-rule:evenodd;stroke:none;stroke-width:1px;stroke-linecap:butt;stroke-linejoin:miter;stroke-opacity:1" />
        <path
           transform="matrix(1.2462012,0.1919501,-0.1919501,1.2462012,36.411545,-217.41783)"
           d="M 352.26979 616.78143 A 11.295608 7.2113204 0 1 1  329.67857,616.78143 A 11.295608 7.2113204 0 1 1  352.26979 616.78143 z"
           sodipodi:ry="7.2113204"
           sodipodi:rx="11.295608"
           sodipodi:cy="616.78143"
           sodipodi:cx="340.97418"
           id="path6934"
           style="fill:#000000;fill-opacity:1;stroke:none"
           sodipodi:type="arc" />
      </g>
      <g
         style="fill:#000000;fill-opacity:1"
         id="g6936"
         transform="translate(82.43278,49.878357)">
        <path
           sodipodi:nodetypes="csccscsscscsss"
           id="path6938"
           d="M 432.875,615.46875 C 431.41772,617.23053 428.0516,616.40909 424.5,615.84375 C 420.9837,615.28403 416.93697,613.99838 413.28125,614.0625 C 413.07561,614.06036 412.88962,614.18435 412.8125,614.375 C 412.14899,616.24488 410.57081,618.56889 408.75,620.59375 C 406.92919,622.61861 404.84776,624.37408 403.21875,625.21875 C 403.03853,625.28858 402.91468,625.45602 402.90068,625.6488 C 402.88668,625.84157 402.98503,626.02515 403.15327,626.12029 C 403.32151,626.21543 403.52952,626.2051 403.6875,626.09375 C 405.50461,625.15154 407.61942,623.34134 409.5,621.25 C 411.28006,619.27045 412.77367,617.06341 413.5625,615.0625 C 417.11105,615.0096 421.06266,616.27132 424.5625,616.84375 C 427.98584,617.40367 434.329,618.12559 435.1344,616.25 C 435.76955,614.77087 433.45117,614.77219 432.875,615.46875 z "
           style="fill:#000000;fill-opacity:1;fill-rule:evenodd;stroke:none;stroke-width:1px;stroke-linecap:round;stroke-linejoin:round;stroke-opacity:1" />
        <path
           style="fill:#000000;fill-opacity:1;fill-rule:evenodd;stroke:none;stroke-width:1px;stroke-linecap:round;stroke-linejoin:round;stroke-opacity:1"
           d="M 419.09668,657.80873 C 418.69012,655.55879 417.67619,654.57476 414.70439,652.61364 C 411.73258,650.65251 408.18817,648.77146 405.03324,646.92354 C 404.85296,646.8246 404.75163,646.62536 404.77786,646.42138 C 405.11616,644.46632 404.87983,641.66707 404.28538,639.00962 C 403.69093,636.35217 402.73727,633.80177 401.73146,632.267 C 401.60861,632.1178 401.58274,631.91114 401.66504,631.73625 C 401.74733,631.56137 401.92305,631.44957 402.11632,631.44911 C 402.3096,631.44866 402.48584,631.55963 402.56895,631.73413 C 403.69089,633.44611 404.64682,636.06058 405.26078,638.80527 C 405.84192,641.40326 406.06188,644.0591 405.76858,646.1898 C 408.8356,647.97541 412.28913,649.81937 415.24906,651.77266 C 418.28465,653.77588 421.66638,656.20576 421.44896,658.23535 C 421.2775,659.83592 419.25742,658.6983 419.09668,657.80873 z "
           id="path6940"
           sodipodi:nodetypes="csccscsscscsss" />
        <g
           style="fill:#000000;fill-opacity:1"
           transform="matrix(0.9807247,0.1953945,-0.1953945,0.9807247,130.70828,-64.687222)"
           id="g6942">
          <g
             style="fill:#000000"
             transform="matrix(0.1507605,-0.6715629,0.6715629,0.1507605,-84.146701,810.90684)"
             id="g6944">
            <path
               style="fill:#000000;stroke:none;stroke-linecap:round;stroke-linejoin:round"
               d="M 413.52584,631.34449 L 415.45483,633.99535 C 414.46624,634.89273 414.37547,636.19494 414.77857,637.63222 C 413.07227,637.46631 411.63615,636.31268 411.00834,635.11473 L 413.52584,631.34449 z "
               id="path6946"
               sodipodi:nodetypes="ccccc" />
            <path
               sodipodi:nodetypes="ccccc"
               id="path6948"
               d="M 417.61368,630.53005 L 416.84795,633.71779 C 418.10498,634.16776 418.6879,635.33575 418.86642,636.81777 C 420.37885,636.01058 421.26317,634.39464 421.38392,633.04755 L 417.61368,630.53005 z "
               style="fill:#000000;stroke:none;stroke-linecap:round;stroke-linejoin:round" />
          </g>
          <path
             style="fill:#000000;fill-opacity:1;stroke:none"
             d="M 404.0892,626.67305 C 404.0892,629.03326 403.53476,631.17112 401.81368,632.71894 C 400.0926,634.26676 395.71542,635.22453 393.09101,635.22453 C 387.84219,635.22453 385.58228,631.39346 385.58228,626.67305 C 385.58228,621.95263 387.84219,618.12157 393.09101,618.12157 C 395.71542,618.12157 400.0926,619.07934 401.81368,620.62715 C 403.53476,622.17497 404.0892,624.31284 404.0892,626.67305 z "
             id="path6950"
             sodipodi:nodetypes="csssssc" />
        </g>
      </g>
    </g>
    <g
       style="fill:#640a00;fill-opacity:1"
       id="g6952"
       transform="translate(-17.56722,49.878357)">
      <path
         sodipodi:nodetypes="csccccsscccccc"
         id="path6954"
         d="M 338.1875,588.84375 C 337.98288,588.85111 337.80343,588.98247 337.73457,589.17529 C 337.6657,589.36811 337.72134,589.58343 337.875,589.71875 C 341.27083,593.11458 344.34285,598.12952 348.0625,599.90625 C 349.35531,602.71309 351.9434,606.81521 356.3125,608.8125 C 358.42437,613.39945 362.47917,616.20538 365.5625,618.6875 C 365.67948,618.83873 365.87245,618.91002 366.05965,618.87116 C 366.24685,618.83231 366.39551,618.69011 366.44264,618.50482 C 366.48978,618.31953 366.42713,618.12358 366.28125,618 C 366.12271,615.8417 362.07834,611.09285 357.0625,608.125 C 355.92118,604.99434 352.35122,600.89222 348.78125,599.21875 C 348.78158,599.20834 348.78158,599.19791 348.78125,599.1875 C 347.00452,595.46785 341.98958,592.39583 338.59375,589 C 338.48929,588.88862 338.33967,588.83107 338.1875,588.84375 z "
         style="fill:#640a00;fill-opacity:1;fill-rule:evenodd;stroke:none;stroke-width:1px;stroke-linecap:round;stroke-linejoin:round;stroke-opacity:1" />
      <path
         sodipodi:nodetypes="ccccccsscccccsc"
         id="path6956"
         d="M 383,586.90625 C 382.87102,586.93501 382.75867,587.01366 382.6875,587.125 C 380.57292,590.04167 377.32496,592.79642 376.34375,595.875 C 376.29042,595.9483 376.25801,596.03471 376.25,596.125 C 375.17437,599.11844 375.07021,602.75951 375.9375,606.5625 C 372.83153,606.23826 368.59219,611.41896 368.5625,618.21875 C 368.45027,618.36953 368.43208,618.57051 368.51541,618.739 C 368.59874,618.90748 368.76951,619.015 368.95746,619.01732 C 369.14541,619.01964 369.31878,618.91637 369.40625,618.75 C 372.05774,614.00295 373.89969,610.55118 376.875,606.9375 C 376.91732,606.86106 376.93887,606.77486 376.9375,606.6875 C 378.82268,603.06726 378.11729,599.44701 377.25,596.3125 C 379.32292,594.58129 381.39583,590.58333 383.46875,587.71875 C 383.6025,587.55779 383.62187,587.33056 383.51729,587.14928 C 383.4127,586.96801 383.2063,586.87103 383,586.90625 z "
         style="fill:#640a00;fill-opacity:1;fill-rule:evenodd;stroke:none;stroke-width:1px;stroke-linecap:round;stroke-linejoin:round;stroke-opacity:1" />
      <path
         sodipodi:nodetypes="ccccccssccccccsc"
         id="path6958"
         d="M 410.125,607 C 407,608.03125 401.28444,607.4434 400.75,610.09375 C 400.73958,610.09375 400.72917,610.09375 400.71875,610.09375 C 397.98188,609.00976 392.65444,607.92576 389.59375,613.15625 C 389.58334,613.15592 389.57291,613.15592 389.5625,613.15625 C 385.7792,610.19003 376.65288,612.40493 374.8125,618.34375 C 374.6352,618.39772 374.50229,618.54532 374.46714,618.72729 C 374.43199,618.90926 374.50037,619.09575 374.64482,619.21187 C 374.78926,619.32798 374.98609,619.35469 375.15625,619.28125 C 379.40444,615.13385 383.32882,614.38656 389.84375,614.125 C 389.85417,614.125 389.86458,614.125 389.875,614.125 C 392.94611,612.78035 395.85531,611.27378 401.03125,611.0625 C 401.03158,611.05209 401.03158,611.04166 401.03125,611.03125 C 403.68094,610.65806 407.30208,608.98958 410.4375,607.96875 C 410.70501,607.88246 410.85192,607.59564 410.76562,607.32812 C 410.67933,607.06061 410.39251,606.91371 410.125,607 z "
         style="fill:#640a00;fill-opacity:1;fill-rule:evenodd;stroke:none;stroke-width:1px;stroke-linecap:round;stroke-linejoin:round;stroke-opacity:1" />
    </g>
    <g
       style="fill:#640a00;fill-opacity:1"
       id="g6960"
       transform="matrix(0.9521764,0.305549,0.305549,-0.9521764,-189.76601,1150.0406)">
      <path
         style="fill:#640a00;fill-opacity:1;fill-rule:evenodd;stroke:none;stroke-width:1px;stroke-linecap:round;stroke-linejoin:round;stroke-opacity:1"
         d="M 338.1875,588.84375 C 337.98288,588.85111 337.80343,588.98247 337.73457,589.17529 C 337.6657,589.36811 337.72134,589.58343 337.875,589.71875 C 341.27083,593.11458 344.34285,598.12952 348.0625,599.90625 C 349.35531,602.71309 351.9434,606.81521 356.3125,608.8125 C 358.42437,613.39945 362.47917,616.20538 365.5625,618.6875 C 365.67948,618.83873 365.87245,618.91002 366.05965,618.87116 C 366.24685,618.83231 366.39551,618.69011 366.44264,618.50482 C 366.48978,618.31953 366.42713,618.12358 366.28125,618 C 366.12271,615.8417 362.07834,611.09285 357.0625,608.125 C 355.92118,604.99434 352.35122,600.89222 348.78125,599.21875 C 348.78158,599.20834 348.78158,599.19791 348.78125,599.1875 C 347.00452,595.46785 341.98958,592.39583 338.59375,589 C 338.48929,588.88862 338.33967,588.83107 338.1875,588.84375 z "
         id="path6962"
         sodipodi:nodetypes="csccccsscccccc" />
      <path
         style="fill:#640a00;fill-opacity:1;fill-rule:evenodd;stroke:none;stroke-width:1px;stroke-linecap:round;stroke-linejoin:round;stroke-opacity:1"
         d="M 383,586.90625 C 382.87102,586.93501 382.75867,587.01366 382.6875,587.125 C 380.57292,590.04167 377.32496,592.79642 376.34375,595.875 C 376.29042,595.9483 376.25801,596.03471 376.25,596.125 C 375.17437,599.11844 375.07021,602.75951 375.9375,606.5625 C 372.83153,606.23826 368.59219,611.41896 368.5625,618.21875 C 368.45027,618.36953 368.43208,618.57051 368.51541,618.739 C 368.59874,618.90748 368.76951,619.015 368.95746,619.01732 C 369.14541,619.01964 369.31878,618.91637 369.40625,618.75 C 372.05774,614.00295 373.89969,610.55118 376.875,606.9375 C 376.91732,606.86106 376.93887,606.77486 376.9375,606.6875 C 378.82268,603.06726 378.11729,599.44701 377.25,596.3125 C 379.32292,594.58129 381.39583,590.58333 383.46875,587.71875 C 383.6025,587.55779 383.62187,587.33056 383.51729,587.14928 C 383.4127,586.96801 383.2063,586.87103 383,586.90625 z "
         id="path6964"
         sodipodi:nodetypes="ccccccsscccccsc" />
      <path
         style="fill:#640a00;fill-opacity:1;fill-rule:evenodd;stroke:none;stroke-width:1px;stroke-linecap:round;stroke-linejoin:round;stroke-opacity:1"
         d="M 410.125,607 C 407,608.03125 401.28444,607.4434 400.75,610.09375 C 400.73958,610.09375 400.72917,610.09375 400.71875,610.09375 C 397.98188,609.00976 392.65444,607.92576 389.59375,613.15625 C 389.58334,613.15592 389.57291,613.15592 389.5625,613.15625 C 385.7792,610.19003 376.65288,612.40493 374.8125,618.34375 C 374.6352,618.39772 374.50229,618.54532 374.46714,618.72729 C 374.43199,618.90926 374.50037,619.09575 374.64482,619.21187 C 374.78926,619.32798 374.98609,619.35469 375.15625,619.28125 C 379.40444,615.13385 383.32882,614.38656 389.84375,614.125 C 389.85417,614.125 389.86458,614.125 389.875,614.125 C 392.94611,612.78035 395.85531,611.27378 401.03125,611.0625 C 401.03158,611.05209 401.03158,611.04166 401.03125,611.03125 C 403.68094,610.65806 407.30208,608.98958 410.4375,607.96875 C 410.70501,607.88246 410.85192,607.59564 410.76562,607.32812 C 410.67933,607.06061 410.39251,606.91371 410.125,607 z "
         id="path6966"
         sodipodi:nodetypes="ccccccssccccccsc" />
    </g>
    <g
       style="fill:#420b06;fill-opacity:1"
       id="g6968"
       transform="translate(-17.56722,49.878357)">
      <path
         sodipodi:nodetypes="ccccccccccc"
         id="path6970"
         d="M 347.44845,615.11919 C 354.71646,615.61113 357.38964,617.12414 362.36024,618.12661 C 366.24992,615.97515 371.16067,617.52506 373.64638,619.33025 C 376.87348,616.17785 385.33357,619.40715 385.24218,622.89173 L 388.53307,623.61945 L 388.1789,626.80706 L 384.62657,626.33168 C 381.90961,629.50432 374.08729,628.84795 372.64666,624.36255 C 369.11613,626.0809 363.67108,624.22549 361.67215,621.85955 C 356.57674,621.26559 353.90638,621.56507 346.38592,620.07768 L 347.44845,615.11919 z "
         style="fill:url(#radialGradient6998);fill-opacity:1;fill-rule:evenodd;stroke:none;stroke-width:1px;stroke-linecap:butt;stroke-linejoin:miter;stroke-opacity:1" />
      <path
         transform="matrix(1.2462012,0.1919501,-0.1919501,1.2462012,36.411545,-217.41783)"
         d="M 352.26979 616.78143 A 11.295608 7.2113204 0 1 1  329.67857,616.78143 A 11.295608 7.2113204 0 1 1  352.26979 616.78143 z"
         sodipodi:ry="7.2113204"
         sodipodi:rx="11.295608"
         sodipodi:cy="616.78143"
         sodipodi:cx="340.97418"
         id="path6972"
         style="fill:url(#radialGradient7000);fill-opacity:1;stroke:none"
         sodipodi:type="arc" />
      <path
         style="fill:url(#radialGradient7002);fill-opacity:1;fill-rule:evenodd;stroke:none;stroke-width:1px;stroke-linecap:butt;stroke-linejoin:miter;stroke-opacity:1"
         d="M 347.44845,615.11919 C 354.71646,615.61113 357.38964,617.12414 362.36024,618.12661 C 366.24992,615.97515 371.16067,617.52506 373.64638,619.33025 C 376.87348,616.17785 385.33357,619.40715 385.24218,622.89173 L 388.53307,623.61945 L 388.1789,626.80706 L 384.62657,626.33168 C 381.90961,629.50432 374.08729,628.84795 372.64666,624.36255 C 369.11613,626.0809 363.67108,624.22549 361.67215,621.85955 C 356.57674,621.26559 353.90638,621.56507 346.38592,620.07768 L 347.44845,615.11919 z "
         id="path6974"
         sodipodi:nodetypes="ccccccccccc" />
    </g>
    <g
       style="fill:#420b06;fill-opacity:1"
       id="g6976"
       transform="translate(-17.56722,49.878357)">
      <path
         sodipodi:nodetypes="csccscsscscsss"
         id="path6978"
         d="M 430.875,611.46875 C 429.41772,613.23053 428.0516,613.59119 424.5,613.84375 C 420.9484,614.09631 416.93697,613.99838 413.28125,614.0625 C 413.07561,614.06036 412.88962,614.18435 412.8125,614.375 C 412.14899,616.24488 410.57081,618.56889 408.75,620.59375 C 406.92919,622.61861 404.84776,624.37408 403.21875,625.21875 C 403.03853,625.28858 402.91468,625.45602 402.90068,625.6488 C 402.88668,625.84157 402.98503,626.02515 403.15327,626.12029 C 403.32151,626.21543 403.52952,626.2051 403.6875,626.09375 C 405.50461,625.15154 407.61942,623.34134 409.5,621.25 C 411.28006,619.27045 412.77367,617.06341 413.5625,615.0625 C 417.11105,615.0096 421.02509,615.0953 424.5625,614.84375 C 428.19032,614.58577 432.329,614.12559 433.1344,612.25 C 433.76955,610.77087 431.45117,610.77219 430.875,611.46875 z "
         style="fill:#420b06;fill-opacity:1;fill-rule:evenodd;stroke:none;stroke-width:1px;stroke-linecap:round;stroke-linejoin:round;stroke-opacity:1" />
      <path
         style="fill:#420b06;fill-opacity:1;fill-rule:evenodd;stroke:none;stroke-width:1px;stroke-linecap:round;stroke-linejoin:round;stroke-opacity:1"
         d="M 421.09668,655.80873 C 420.69012,653.55879 419.85243,652.27719 416.70439,650.61364 C 413.23067,648.77799 408.81557,648.26955 405.40968,646.92354 C 405.2294,646.8246 405.12807,646.62536 405.1543,646.42138 C 405.4926,644.46632 404.87983,641.66707 404.28538,639.00962 C 403.69093,636.35217 402.73727,633.80177 401.73146,632.267 C 401.60861,632.1178 401.58274,631.91114 401.66504,631.73625 C 401.74733,631.56137 401.92305,631.44957 402.11632,631.44911 C 402.3096,631.44866 402.48584,631.55963 402.56895,631.73413 C 403.69089,633.44611 404.64682,636.06058 405.26078,638.80527 C 405.84192,641.40326 406.43832,644.0591 406.14502,646.1898 C 409.33752,647.22254 413.66174,647.81937 417.24906,649.77266 C 420.44324,651.51189 423.66638,654.20576 423.44896,656.23535 C 423.2775,657.83592 421.25742,656.6983 421.09668,655.80873 z "
         id="path6980"
         sodipodi:nodetypes="csccscsscscsss" />
      <g
         style="fill:#420b06;fill-opacity:1"
         transform="matrix(0.9807247,0.1953945,-0.1953945,0.9807247,130.70828,-64.687222)"
         id="g6982">
        <g
           transform="matrix(0.1507605,-0.6715629,0.6715629,0.1507605,-84.146701,810.90684)"
           id="g6984">
          <path
             style="stroke:none;stroke-linecap:round;stroke-linejoin:round"
             d="M 413.52584,631.34449 L 415.45483,633.99535 C 414.46624,634.89273 414.37547,636.19494 414.77857,637.63222 C 413.07227,637.46631 411.63615,636.31268 411.00834,635.11473 L 413.52584,631.34449 z "
             id="path6986"
             sodipodi:nodetypes="ccccc" />
          <path
             sodipodi:nodetypes="ccccc"
             id="path6988"
             d="M 417.61368,630.53005 L 416.84795,633.71779 C 418.10498,634.16776 418.6879,635.33575 418.86642,636.81777 C 420.37885,636.01058 421.26317,634.39464 421.38392,633.04755 L 417.61368,630.53005 z "
             style="stroke:none;stroke-linecap:round;stroke-linejoin:round" />
        </g>
        <path
           style="fill:url(#radialGradient7004);fill-opacity:1;stroke:none"
           d="M 404.0892,626.67305 C 404.0892,629.03326 403.53476,631.17112 401.81368,632.71894 C 400.0926,634.26676 395.71542,635.22453 393.09101,635.22453 C 387.84219,635.22453 385.58228,631.39346 385.58228,626.67305 C 385.58228,621.95263 387.84219,618.12157 393.09101,618.12157 C 395.71542,618.12157 400.0926,619.07934 401.81368,620.62715 C 403.53476,622.17497 404.0892,624.31284 404.0892,626.67305 z "
           id="path6990"
           sodipodi:nodetypes="csssssc" />
        <g
           style="fill:#000000;fill-opacity:1"
           id="g6992"
           transform="translate(2,-0.3407439)">
          <path
             transform="translate(-2,-2)"
             d="M 400.00492 625.01379 A 1.7868758 1.7868758 0 1 1  396.43117,625.01379 A 1.7868758 1.7868758 0 1 1  400.00492 625.01379 z"
             sodipodi:ry="1.7868758"
             sodipodi:rx="1.7868758"
             sodipodi:cy="625.01379"
             sodipodi:cx="398.21805"
             id="path6994"
             style="fill:#000000;fill-opacity:1;stroke:none"
             sodipodi:type="arc" />
          <path
             sodipodi:type="arc"
             style="fill:#000000;fill-opacity:1;stroke:none"
             id="path6996"
             sodipodi:cx="398.21805"
             sodipodi:cy="625.01379"
             sodipodi:rx="1.7868758"
             sodipodi:ry="1.7868758"
             d="M 400.00492 625.01379 A 1.7868758 1.7868758 0 1 1  396.43117,625.01379 A 1.7868758 1.7868758 0 1 1  400.00492 625.01379 z"
             transform="translate(-2,6)" />
        </g>
      </g>
    </g>
  </g>
</svg>
